<svg xmlns="http://www.w3.org/2000/svg" xmlns:xlink="http://www.w3.org/1999/xlink" width="48" height="48" viewBox="0 0 48 48">
  <defs>
    <rect id="white-a" width="48" height="48"/>
  </defs>
  <g fill="none" fill-rule="evenodd">
    <mask id="white-b" fill="#fff">
      <use xlink:href="#white-a"/>
    </mask>
    <path stroke="#FFF" stroke-linecap="round" stroke-linejoin="round" d="M23.5348837,25.3521127 C26.2749011,25.3521127 28.496124,23.132454 28.496124,20.3943662 C28.496124,17.6562784 26.2749011,15.4366197 23.5348837,15.4366197 C20.7948664,15.4366197 18.5736434,17.6562784 18.5736434,20.3943662 C18.5736434,23.132454 20.7948664,25.3521127 23.5348837,25.3521127 Z M10.8217054,40.5352113 C10.0886767,40.3021391 10.3565891,38.9859155 15.7829457,34.3380282 C19.6589147,29.8450704 18.2635659,25.971831 26.4806202,25.971831 C28.3410853,24.7323944 28.9852728,23.8045741 29.7364341,22.0985915 C30.84278,19.5859399 30.9579844,16.8546895 30.6666667,14.8169014 C30.5116279,13.7323944 31.2868217,13.2676056 32.2170543,13.8873239 C33.901022,15.4969414 33.5716469,21.5603282 32.0620155,24.5774648 C31.6038463,25.4931578 30.7801033,26.6523952 29.5907863,28.0551768 L29.590771,28.0551639 C29.2844253,28.4164941 29.1162791,28.8748323 29.1162791,29.3485486 L29.1162791,41 L19.6589147,41 L19.2104196,35.6174986 C19.2058133,35.5622622 19.1573013,35.5212184 19.1020649,35.5258247 C19.0811267,35.5275708 19.0612645,35.5358442 19.0452783,35.5494787 C14.7890036,39.1796113 12.0478126,40.8415222 10.8217054,40.5352113 Z M31.1317829,13.5774648 L29.7364341,11.7183099 M4,32.7887324 L14.5426357,32.7887324 M30.0465116,32.7887324 L44,32.7887324 M14.5426357,31.2394366 L4.31007752,31.2394366 L4.31007752,8 L43.6899225,8 L43.6899225,31.2394366 L30.0465116,31.2394366" mask="url(#white-b)"/>
  </g>
</svg>
