<svg xmlns="http://www.w3.org/2000/svg" xmlns:xlink="http://www.w3.org/1999/xlink" width="48" height="48" viewBox="0 0 48 48">
  <defs>
    <polygon id="white-a" points="0 0 48 0 48 48 0 48"/>
  </defs>
  <g fill="none" fill-rule="evenodd">
    <mask id="white-b" fill="#fff">
      <use xlink:href="#white-a"/>
    </mask>
    <path stroke="#FFF" stroke-linecap="round" stroke-linejoin="round" d="M9.16084559,44 L38.9545228,44 C34.5326118,42.2801392 30.5863099,41.3414861 27.1156173,41.1840407 C26.5310344,41.1575216 25.4465713,41.3930652 23.8622281,41.8906718 C22.4818093,41.3949523 21.5091403,41.1594086 20.944221,41.1840407 C17.4429308,41.3367071 13.5151389,42.2753602 9.16084559,44 Z M21.353905,38.0142732 L21.3539465,41.1046576 L23.8436543,41.88933 L26.762523,41.1046576 L26.7625644,38.0142732 C25.9987756,38.4033347 25.0258055,38.7423019 23.8436543,39.0311749 C23.0404476,38.8028752 22.2105311,38.4639079 21.353905,38.0142732 Z M34.5760262,26.2061561 L35.3333291,26.2447492 C35.8444245,26.2707953 36.2502515,26.68423 36.2668017,27.195721 C36.3115852,28.5799249 35.9945828,29.5626026 35.3157895,30.1437541 C34.2631579,31.1075531 33.4736842,31.019935 33.0350877,30.7570807 C33.122807,30.3189903 33.4736842,29.5304275 33.8245614,27.7780658 C34.2299197,27.2856247 34.4454247,26.7931837 34.4710763,26.3007427 L34.4711581,26.300747 C34.4740264,26.2456823 34.5209584,26.2033498 34.5760262,26.2061561 Z M13.457879,26.2104386 L12.7670543,26.2447492 C12.2423087,26.2708114 11.8257792,26.6959137 11.8104113,27.2210813 C11.7702752,28.5919334 12.087538,29.5661579 12.7621787,30.1437541 C13.8148103,31.1075531 14.6140351,31.019935 15.0526316,30.7570807 C15.0526316,30.4066084 14.6140351,29.4428094 14.1754386,27.6028296 C13.8864778,27.1127032 13.7164597,26.7048284 13.6653844,26.3792049 L13.6653888,26.3792042 C13.6495409,26.2781685 13.5600242,26.2053654 13.457879,26.2104386 Z M14.1754386,27.6028296 C15.0526316,31.1075531 16.8070175,36.8903468 23.8245614,38.9931809 C29.2046784,37.9417638 32.5380117,34.2033921 33.8245614,27.7780658 C32.7719298,27.1939452 31.8748629,25.2974357 31.1333607,22.0885374 C26.4561404,27.6028296 22.4210526,27.0771211 16.9732045,22.0885374 C16.2807018,26.025704 15.0526316,27.2523572 14.1754386,27.6028296 Z M13.4736842,23.2219253 C13.6180484,26.6617266 13.6180484,26.5584716 14.1754386,27.6028296 C16.0252536,26.7544144 16.4743529,24.1792 16.9791679,22.1261858 C23.075721,27.7501717 26.9688443,26.8630386 31.0938308,22.1261858 C31.7266296,24.1792 32.2572644,26.8630386 33.8325275,27.7501717 C34.5263158,26.8630386 34.5263158,26.65409 34.5263158,23.2219253 C29.606411,20.4126703 20.979852,18.8507753 13.4736842,23.2219253 Z M13.4736842,14.1096442 C20.4788076,7.50577318 29.3724634,10.18497 34.5263158,14.1344579 C34.5263158,17.3977183 34.5263158,22.0060532 34.5263158,23.2219253 C28.3613795,19.8065739 20.014854,19.3941529 13.4736842,23.2219253 C13.4736842,20.4987483 13.4736842,14.1096442 13.4736842,14.1096442 Z M4.24450963,14.5467392 L23.8245614,7.45066962 L43.7529432,14.5473732 C43.8049711,14.5659009 43.8321285,14.6230976 43.8136008,14.6751256 C43.804041,14.7019704 43.7834826,14.7234617 43.7570882,14.7342026 L34.5263158,18.4905486 C34.5263158,16.2708904 34.5263158,14.8105889 34.5263158,14.1096442 C29.6140351,10.4296846 20.8421053,7.27543345 13.4736842,14.1096442 C13.4736842,14.5769407 13.4736842,16.0372421 13.4736842,18.4905486 L4.24089001,14.7333799 C4.18973494,14.712563 4.16514101,14.6542182 4.18595791,14.6030631 C4.19662549,14.5768488 4.21790144,14.5563824 4.24450963,14.5467392 Z M4.06094141,13.3828428 L23.7862443,5.01362068 C23.8107692,5.00321506 23.8384324,5.00302567 23.8630975,5.01309454 L43.9377945,13.2080696 C43.9754135,13.2234265 44,13.2600196 44,13.3006524 L44,14.4935902 C44,14.5488187 43.9552285,14.5935902 43.9,14.5935902 C43.8885685,14.5935902 43.8772217,14.5916301 43.8664526,14.5877951 L23.8584053,7.4627218 C23.8365272,7.45493078 23.8126195,7.45499751 23.7907853,7.46291054 L4.13407272,14.586763 C4.082149,14.6055809 4.02480162,14.5787432 4.00598378,14.5268195 C4.00202489,14.5158958 4,14.5043657 4,14.4927468 L4,13.4748994 C4,13.4347649 4.02399492,13.3985188 4.06094141,13.3828428 Z" mask="url(#white-b)"/>
  </g>
</svg>
